<mxfile host="app.diagrams.net" agent="Mozilla/5.0 (Windows NT 10.0; Win64; x64) AppleWebKit/537.36 (KHTML, like Gecko) Chrome/131.0.0.0 Safari/537.36 OPR/116.0.0.0" version="26.0.14">
  <diagram name="Page-1" id="BhMnXEd4iuYotzbo9Yvr">
    <mxGraphModel dx="328" dy="176" grid="1" gridSize="10" guides="1" tooltips="1" connect="1" arrows="1" fold="1" page="1" pageScale="1" pageWidth="850" pageHeight="1100" math="0" shadow="0">
      <root>
        <mxCell id="0" />
        <mxCell id="1" parent="0" />
        <mxCell id="s1-EU_GbL1mds6aHtoGt-2" value="&lt;font style=&quot;font-size: 24px;&quot;&gt;PROJECT MONITORING AND MANAGEMENT SYSTEM (PMMS)&lt;/font&gt;" style="rounded=1;whiteSpace=wrap;html=1;" vertex="1" parent="1">
          <mxGeometry x="30" y="30" width="790" height="60" as="geometry" />
        </mxCell>
        <mxCell id="s1-EU_GbL1mds6aHtoGt-6" value="" style="rounded=0;whiteSpace=wrap;html=1;rotation=90;glass=0;" vertex="1" parent="1">
          <mxGeometry x="-14.68" y="184.69" width="199.37" height="110" as="geometry" />
        </mxCell>
        <mxCell id="s1-EU_GbL1mds6aHtoGt-8" value="Word Bank" style="whiteSpace=wrap;html=1;fillColor=#0050ef;fontColor=#ffffff;strokeColor=#001DBC;rounded=0;" vertex="1" parent="1">
          <mxGeometry x="30" y="140" width="110" height="20" as="geometry" />
        </mxCell>
        <mxCell id="s1-EU_GbL1mds6aHtoGt-11" style="edgeStyle=orthogonalEdgeStyle;rounded=0;orthogonalLoop=1;jettySize=auto;html=1;exitX=1;exitY=0.5;exitDx=0;exitDy=0;entryX=0.996;entryY=0.504;entryDx=0;entryDy=0;entryPerimeter=0;" edge="1" parent="1">
          <mxGeometry relative="1" as="geometry">
            <mxPoint x="42.5" y="340.0000000000001" as="sourcePoint" />
            <mxPoint x="42.39999999999998" y="339.2800000000002" as="targetPoint" />
          </mxGeometry>
        </mxCell>
        <mxCell id="s1-EU_GbL1mds6aHtoGt-12" value="" style="whiteSpace=wrap;html=1;" vertex="1" parent="1">
          <mxGeometry x="30" y="160" width="110" height="20" as="geometry" />
        </mxCell>
        <mxCell id="s1-EU_GbL1mds6aHtoGt-13" value="" style="whiteSpace=wrap;html=1;" vertex="1" parent="1">
          <mxGeometry x="30.01" y="180" width="110" height="20" as="geometry" />
        </mxCell>
        <mxCell id="s1-EU_GbL1mds6aHtoGt-14" value="" style="endArrow=none;html=1;rounded=0;exitX=0.25;exitY=0;exitDx=0;exitDy=0;entryX=1;entryY=0.75;entryDx=0;entryDy=0;" edge="1" parent="1" source="s1-EU_GbL1mds6aHtoGt-12" target="s1-EU_GbL1mds6aHtoGt-6">
          <mxGeometry width="50" height="50" relative="1" as="geometry">
            <mxPoint x="20" y="220" as="sourcePoint" />
            <mxPoint x="70" y="170" as="targetPoint" />
          </mxGeometry>
        </mxCell>
      </root>
    </mxGraphModel>
  </diagram>
</mxfile>
